<?xml version="1.0" encoding="UTF-8" standalone="no"?>
<svg
   xmlns:dc="http://purl.org/dc/elements/1.1/"
   xmlns:cc="http://creativecommons.org/ns#"
   xmlns:rdf="http://www.w3.org/1999/02/22-rdf-syntax-ns#"
   xmlns:svg="http://www.w3.org/2000/svg"
   xmlns="http://www.w3.org/2000/svg"
   xmlns:sodipodi="http://sodipodi.sourceforge.net/DTD/sodipodi-0.dtd"
   xmlns:inkscape="http://www.inkscape.org/namespaces/inkscape"
   width="192"
   height="192"
   viewBox="0 0 50.799999 50.799999"
   version="1.1"
   id="svg8"
   inkscape:version="1.0.2 (e86c870879, 2021-01-15)"
   sodipodi:docname="1_noempty_hover.svg"
   inkscape:export-filename="/home/hrq/.config/awesome/themes/dark/taglist/1_empty.png"
   inkscape:export-xdpi="96"
   inkscape:export-ydpi="96">
  <defs
     id="defs2">
    <linearGradient
       id="firefox-b"
       x1="44.017941"
       x2="75.088783"
       y1="144.35971"
       y2="73.385971"
       gradientTransform="scale(0.98864724,1.0114831)"
       gradientUnits="userSpaceOnUse">
      <stop
         offset="0%"
         stop-color="#FF837D"
         id="stop10" />
      <stop
         offset="100%"
         stop-color="#F8C18C"
         id="stop12" />
    </linearGradient>
    <path
       id="firefox-a"
       d="m 180.85648,81.906566 -3.11016,2.681417 c 0,-19.143407 -27.04096,-58.671854 -31.43882,-66.93896 -1.68953,2.45768 -3.39729,5.263416 -3.48586,8.267106 C 141.00482,23.0214 124.94671,10.560517 121.85269,0 112.2272,8.4430317 103.72622,32.361926 109.744,48.763614 c 6.01777,16.401689 19.30416,25.239218 19.40566,25.476354 22.12264,51.688172 -21.61222,69.707382 -45.775121,63.385052 -10.383055,-2.71678 -14.904898,-7.76453 -20.467849,-13.47452 9.749446,2.37635 16.921639,1.6572 24.379614,-0.85365 9.179713,-3.0905 9.944685,-8.54235 17.363836,-5.61924 2.78991,-0.38596 3.00365,-3.23229 2.06993,-5.78079 -1.34996,-1.89576 -3.39177,-3.61557 -6.01294,-5.13105 -5.720442,-3.01392 -12.06164,-1.17303 -22.336173,1.22237 -9.906975,2.30971 -27.820024,-12.752195 -18.247652,-23.400157 2.261011,0.65236 4.831486,1.602507 9.657585,3.021492 1.013429,-1.755591 1.941525,-8.304432 1.013429,-10.747096 4.533608,-4.359122 17.166963,-7.939883 17.459454,-9.625637 1.226212,-1.640346 4.201234,-9.511091 2.682531,-10.464649 -3.178025,0.175955 -24.956639,0 -22.38629,-9.848499 C 69.706188,43.62761 76.333493,34.714305 81.120219,31.444964 72.656136,29.44089 64.657636,33.062795 57.474735,38.251501 53.677979,36.882773 41.916634,35.11285 38.428428,36.882773 35.280484,35.662503 29.560917,31.191814 27.907219,20.106703 25.149761,22.649818 17.48786,29.796007 15.896925,50.359514 7.7023651,59.621415 2.0046937,78.62393 2.1959377,79.305043 L 6.6985598,71.660084 C 4.7539081,78.226253 1.2377426,96.103875 0.59651267,101.58683 L 3.8476611,94.152024 c 0,0 -1.2118642,20.149156 6.9307749,37.977216 8.142638,17.82806 23.385689,31.76512 34.365346,38.15623 7.891629,4.7167 25.098219,14.20313 43.109991,14.13782 18.011777,-0.0653 43.186767,-2.25833 52.294417,-17.30253 7.669,-4.51569 14.22939,-8.21329 19.04584,-12.68801 8.72866,-8.10934 10.52212,-16.18613 10.00889,-22.30351 7.87678,-15.40328 11.25356,-33.561215 11.25356,-50.222674 z m -19.29437,-9.451851 -0.0394,0.743548 0.0281,-0.749224 0.0112,0.0057 z" />
    <linearGradient
       id="firefox-d"
       x1="39.419472"
       x2="38.300323"
       y1="192.83958"
       y2="194.13196"
       gradientTransform="scale(1.6395728,0.60991498)"
       gradientUnits="userSpaceOnUse">
      <stop
         offset="0%"
         stop-color="#FF837D"
         id="stop16" />
      <stop
         offset="100%"
         stop-color="#FF837D"
         id="stop18" />
    </linearGradient>
    <linearGradient
       id="firefox-b-2"
       x1="44.017939"
       x2="75.08878"
       y1="144.35971"
       y2="73.38597"
       gradientTransform="scale(0.98864724,1.0114831)"
       gradientUnits="userSpaceOnUse">
      <stop
         offset="0%"
         stop-color="#FF837D"
         id="stop1343" />
      <stop
         offset="100%"
         stop-color="#F8C18C"
         id="stop1345" />
    </linearGradient>
    <path
       id="firefox-a-1"
       d="M180.856476,81.9065664 L177.746323,84.5879829 C177.746323,65.4445758 150.705356,25.9161294 146.307501,17.6490231 C144.617969,20.1067035 142.910209,22.9124394 142.82164,25.9161294 C141.004822,23.0214 124.946712,10.5605173 121.852694,-3.63797881e-12 C112.227201,8.4430317 103.72622,32.3619261 109.743996,48.7636144 C115.761771,65.1653028 129.048165,74.002832 129.14966,74.2399682 C151.2723,125.928139 107.537438,143.947352 83.3745388,137.625019 C72.9914836,134.908245 68.4696414,129.860491 62.9066902,124.150496 C72.6561358,126.526855 79.8283294,125.807702 87.2863036,123.296852 C96.4660167,120.20635 97.2309886,114.754503 104.650136,117.677612 C107.440049,117.291648 107.653792,114.445319 106.720071,111.896822 C105.370113,110.001058 103.328302,108.281248 100.707134,106.765772 C94.986688,103.751848 88.6454896,105.592738 78.3709572,107.988138 C68.4639817,110.297846 50.5509328,95.2359447 60.1233047,84.5879829 C62.384316,85.2403433 64.9547913,86.19049 69.7808905,87.6094749 C70.794319,85.8538841 71.722415,79.3050429 70.794319,76.8623792 C75.3279273,72.5032574 87.9612825,68.9224964 88.2537734,67.2367423 C89.4799851,65.5963956 92.4550067,57.7256514 90.9363041,56.7720935 C87.7582785,56.9480476 65.9796654,56.7720935 68.5500141,46.9235945 C69.7061884,43.6276103 76.3334932,34.7143053 81.1202186,31.4449639 C72.6561358,29.4408903 64.6576358,33.0627953 57.4747352,38.2515014 C53.6779789,36.8827733 41.9166341,35.1128502 38.4284283,36.8827733 C35.2804835,35.6625025 29.560917,31.1918142 27.9072187,20.1067035 C25.1497606,22.6498185 17.4878598,29.7960068 15.8969252,50.3595139 C7.70236512,59.6214152 2.00469366,78.6239301 2.19593769,79.3050429 L6.69855981,71.6600838 C4.75390809,78.2262528 1.23774263,96.1038747 0.59651267,101.586833 L3.84766107,94.1520238 C3.84766107,94.1520238 2.63579689,114.301176 10.7784356,132.129237 C18.9210743,149.957298 34.1641253,163.894358 45.1437822,170.285467 C53.0354106,175.002173 70.2420009,184.488601 88.2537734,184.423294 C106.265546,184.357987 131.44054,182.164958 140.548186,167.120763 C148.217195,162.605075 154.777579,158.907468 159.594032,154.432753 C168.322695,146.323407 170.116153,138.246617 169.602916,132.129237 C177.479696,116.725959 180.856476,98.5680245 180.856476,81.9065664 Z M161.562107,72.4547154 L161.522734,73.1982635 L161.550858,72.4490394 L161.562107,72.4547154 L161.562107,72.4547154 Z" />
    <linearGradient
       id="firefox-d-0"
       x1="39.41947"
       x2="38.300322"
       y1="192.83958"
       y2="194.13196"
       gradientTransform="scale(1.6395728,0.60991498)"
       gradientUnits="userSpaceOnUse">
      <stop
         offset="0%"
         stop-color="#FF837D"
         id="stop1349" />
      <stop
         offset="100%"
         stop-color="#FF837D"
         id="stop1351" />
    </linearGradient>
    <style
       type="text/css"
       id="style228"><![CDATA[
    .fil1 {fill:none}
    .fil0 {fill:#212121;fill-rule:nonzero}
   ]]></style>
  </defs>
  <sodipodi:namedview
     id="base"
     pagecolor="#ffffff"
     bordercolor="#666666"
     borderopacity="1.0"
     inkscape:pageopacity="0.0"
     inkscape:pageshadow="2"
     inkscape:zoom="3.959798"
     inkscape:cx="116.14552"
     inkscape:cy="107.23235"
     inkscape:document-units="mm"
     inkscape:current-layer="layer1"
     inkscape:document-rotation="0"
     showgrid="false"
     inkscape:window-width="1840"
     inkscape:window-height="1017"
     inkscape:window-x="66"
     inkscape:window-y="14"
     inkscape:window-maximized="0"
     units="px" />
  <metadata
     id="metadata5">
    <rdf:RDF>
      <cc:Work
         rdf:about="">
        <dc:format>image/svg+xml</dc:format>
        <dc:type
           rdf:resource="http://purl.org/dc/dcmitype/StillImage" />
        <dc:title />
      </cc:Work>
    </rdf:RDF>
  </metadata>
  <g
     inkscape:label="Layer 1"
     inkscape:groupmode="layer"
     id="layer1">
    <path
       d="M 14.204514,15.99031 A 14.586363,14.586363 0 0 1 31.228285,11.978743"
       data-name="&lt;Path&gt;"
       id="_Path_"
       style="fill:none;stroke:#d8dee9;stroke-width:2;stroke-linecap:round;stroke-linejoin:round;stroke-miterlimit:4;stroke-dasharray:none;stroke-opacity:1" />
    <path
       d="M 40.000415,25.359097 A 14.599058,14.599058 0 1 1 12.706524,18.2246 a 3.9227034,3.9227034 0 0 1 0.634741,-4.925595 7.0837168,7.0837168 0 0 0 0.863249,2.691305 c 0.36815,0.685521 0.76169,1.180619 1.040976,1.117145 a 11.158758,11.158758 0 0 1 3.173708,0 c 0.520489,-0.672826 1.789972,-2.538966 3.80845,-2.538966 -1.12984,1.12984 -4.367022,5.077933 1.269484,5.077933 h 1.269483 l -3.80845,2.538966 c 0,0 0.431624,0.837859 0,1.269484 -0.482404,-0.482404 -2.538967,0.520488 -2.538967,1.904225 0,1.383736 1.472601,3.173708 4.443192,3.173708 2.970591,0 2.221596,-1.269483 3.80845,-1.269483 a 1.8407508,1.8407508 0 0 1 1.904225,1.269483 c -2.183511,0 -3.80845,2.538966 -6.347417,2.538966 a 5.4206937,5.4206937 0 0 0 3.80845,1.269484 7.6168998,7.6168998 0 0 0 6.11891,-12.148955 7.6168998,7.6168998 0 0 1 3.04676,5.446083 11.349181,11.349181 0 0 0 0.355455,-2.818253 c 0,-3.80845 -1.52338,-8.886383 -4.328938,-10.841387 a 14.573668,14.573668 0 0 1 8.77213,13.380354 z"
       data-name="&lt;Path&gt;"
       id="_Path_2"
       style="fill:none;stroke:#d8dee9;stroke-width:2;stroke-linecap:round;stroke-linejoin:round;stroke-opacity:1;stroke-miterlimit:4;stroke-dasharray:none" />
    <ellipse
       style="fill:#88c0c0;fill-opacity:1;stroke:none;stroke-width:2.61917"
       id="path72"
       cx="35.983334"
       cy="35.983334"
       rx="8.0543346"
       ry="8.2823496" />
  </g>
</svg>
