<?xml version="1.0" encoding="UTF-8" standalone="no"?>
<svg
   xmlns:dc="http://purl.org/dc/elements/1.1/"
   xmlns:cc="http://creativecommons.org/ns#"
   xmlns:rdf="http://www.w3.org/1999/02/22-rdf-syntax-ns#"
   xmlns:svg="http://www.w3.org/2000/svg"
   xmlns="http://www.w3.org/2000/svg"
   xmlns:sodipodi="http://sodipodi.sourceforge.net/DTD/sodipodi-0.dtd"
   xmlns:inkscape="http://www.inkscape.org/namespaces/inkscape"
   width="192"
   height="192"
   viewBox="0 0 50.799999 50.799999"
   version="1.1"
   id="svg8"
   inkscape:version="1.0.2 (e86c870879, 2021-01-15)"
   sodipodi:docname="4_occupied.svg"
   inkscape:export-filename="/home/hrq/.config/awesome/themes/dark/taglist/2_empty.png"
   inkscape:export-xdpi="96"
   inkscape:export-ydpi="96">
  <defs
     id="defs2">
    <linearGradient
       id="firefox-b"
       x1="44.017941"
       x2="75.088783"
       y1="144.35971"
       y2="73.385971"
       gradientTransform="scale(0.98864724,1.0114831)"
       gradientUnits="userSpaceOnUse">
      <stop
         offset="0%"
         stop-color="#FF837D"
         id="stop10" />
      <stop
         offset="100%"
         stop-color="#F8C18C"
         id="stop12" />
    </linearGradient>
    <path
       id="firefox-a"
       d="m 180.85648,81.906566 -3.11016,2.681417 c 0,-19.143407 -27.04096,-58.671854 -31.43882,-66.93896 -1.68953,2.45768 -3.39729,5.263416 -3.48586,8.267106 C 141.00482,23.0214 124.94671,10.560517 121.85269,0 112.2272,8.4430317 103.72622,32.361926 109.744,48.763614 c 6.01777,16.401689 19.30416,25.239218 19.40566,25.476354 22.12264,51.688172 -21.61222,69.707382 -45.775121,63.385052 -10.383055,-2.71678 -14.904898,-7.76453 -20.467849,-13.47452 9.749446,2.37635 16.921639,1.6572 24.379614,-0.85365 9.179713,-3.0905 9.944685,-8.54235 17.363836,-5.61924 2.78991,-0.38596 3.00365,-3.23229 2.06993,-5.78079 -1.34996,-1.89576 -3.39177,-3.61557 -6.01294,-5.13105 -5.720442,-3.01392 -12.06164,-1.17303 -22.336173,1.22237 -9.906975,2.30971 -27.820024,-12.752195 -18.247652,-23.400157 2.261011,0.65236 4.831486,1.602507 9.657585,3.021492 1.013429,-1.755591 1.941525,-8.304432 1.013429,-10.747096 4.533608,-4.359122 17.166963,-7.939883 17.459454,-9.625637 1.226212,-1.640346 4.201234,-9.511091 2.682531,-10.464649 -3.178025,0.175955 -24.956639,0 -22.38629,-9.848499 C 69.706188,43.62761 76.333493,34.714305 81.120219,31.444964 72.656136,29.44089 64.657636,33.062795 57.474735,38.251501 53.677979,36.882773 41.916634,35.11285 38.428428,36.882773 35.280484,35.662503 29.560917,31.191814 27.907219,20.106703 25.149761,22.649818 17.48786,29.796007 15.896925,50.359514 7.7023651,59.621415 2.0046937,78.62393 2.1959377,79.305043 L 6.6985598,71.660084 C 4.7539081,78.226253 1.2377426,96.103875 0.59651267,101.58683 L 3.8476611,94.152024 c 0,0 -1.2118642,20.149156 6.9307749,37.977216 8.142638,17.82806 23.385689,31.76512 34.365346,38.15623 7.891629,4.7167 25.098219,14.20313 43.109991,14.13782 18.011777,-0.0653 43.186767,-2.25833 52.294417,-17.30253 7.669,-4.51569 14.22939,-8.21329 19.04584,-12.68801 8.72866,-8.10934 10.52212,-16.18613 10.00889,-22.30351 7.87678,-15.40328 11.25356,-33.561215 11.25356,-50.222674 z m -19.29437,-9.451851 -0.0394,0.743548 0.0281,-0.749224 0.0112,0.0057 z" />
    <linearGradient
       id="firefox-d"
       x1="39.419472"
       x2="38.300323"
       y1="192.83958"
       y2="194.13196"
       gradientTransform="scale(1.6395728,0.60991498)"
       gradientUnits="userSpaceOnUse">
      <stop
         offset="0%"
         stop-color="#FF837D"
         id="stop16" />
      <stop
         offset="100%"
         stop-color="#FF837D"
         id="stop18" />
    </linearGradient>
  </defs>
  <sodipodi:namedview
     id="base"
     pagecolor="#ffffff"
     bordercolor="#666666"
     borderopacity="1.0"
     inkscape:pageopacity="0.0"
     inkscape:pageshadow="2"
     inkscape:zoom="2.8284271"
     inkscape:cx="130.75487"
     inkscape:cy="76.321164"
     inkscape:document-units="mm"
     inkscape:current-layer="layer1"
     inkscape:document-rotation="0"
     showgrid="false"
     inkscape:window-width="1840"
     inkscape:window-height="1017"
     inkscape:window-x="66"
     inkscape:window-y="14"
     inkscape:window-maximized="0"
     units="px" />
  <metadata
     id="metadata5">
    <rdf:RDF>
      <cc:Work
         rdf:about="">
        <dc:format>image/svg+xml</dc:format>
        <dc:type
           rdf:resource="http://purl.org/dc/dcmitype/StillImage" />
        <dc:title></dc:title>
      </cc:Work>
    </rdf:RDF>
  </metadata>
  <g
     inkscape:label="Layer 1"
     inkscape:groupmode="layer"
     id="layer1">
    <g
       transform="matrix(0.18269106,0,0,0.18269106,16.448138,17.909666)"
       id="g944"
       style="fill:none;fill-rule:evenodd" />
    <path
       fill="#fdfdfe"
       stroke="#ffffff"
       stroke-width="0.323363"
       stroke-miterlimit="10"
       d="m 33.985181,14.324159 c 0.301899,0.01888 0.584927,0.03774 0.886824,0 0.301896,0.03774 0.584924,0.01888 0.886824,0 0.0566,0.01888 0.132081,0.01888 0.188683,0 0.07547,0.01888 0.169818,0.03774 0.169818,0.150949 0,0.245292 0,0.471714 0,0.717006 0,0.622662 -0.01888,1.264194 0,1.886857 0,0.226422 -0.0566,0.301897 -0.283029,0.301897 -0.547187,-0.01888 -1.113245,-0.03774 -1.660433,0.03774 -0.471715,0.0566 -0.754743,0.320765 -0.830217,0.77361 0,0.01889 0,0.03774 0,0.0566 -0.0566,0.113219 -0.03774,0.226421 -0.03774,0.358502 -0.05659,0.320766 -0.05659,0.64153 -0.05659,0.962297 0,1.245325 0,2.471781 0,3.717106 0,0.09433 0.01888,0.188687 0.01888,0.301899 0,0.01888 -0.01888,0.05659 -0.01888,0.07549 0,1.717041 0,3.41521 0,5.132251 -0.01888,0.01887 -0.01888,0.03774 0,0.05659 0,0.132081 0,0.26416 0,0.377372 0,0.11322 -0.01888,0.207554 -0.01888,0.320765 -0.03774,0.169819 -0.03774,0.339637 -0.03774,0.490584 -0.01888,0.01887 -0.01888,0.01887 0,0.03774 0,0.07548 -0.01888,0.150948 -0.01888,0.226421 -0.01888,0.09433 -0.03774,0.188686 -0.03774,0.264161 -0.113221,0.622663 -0.283027,1.226456 -0.622662,1.773645 -1.18872,2.018937 -2.981232,3.169918 -5.207724,3.735975 -0.849084,0.226424 -1.735908,0.301897 -2.622729,0.396242 -0.0566,-0.01888 -0.09433,-0.01888 -0.13208,0 -0.509451,0 -1.018903,0 -1.528356,0 -0.01888,-0.01888 -0.03774,-0.01888 -0.0566,0 -0.396229,-0.01888 -0.79247,-0.01888 -1.18871,-0.07549 -0.471713,-0.0566 -0.92456,-0.169817 -1.396273,-0.301897 -0.867955,-0.245291 -1.717041,-0.584927 -2.490651,-1.075508 -1.037771,-0.641533 -1.84912,-1.490617 -2.490652,-2.547257 0,0 0,0 0,0 -0.0566,-0.132082 -0.11322,-0.264159 -0.207552,-0.377372 0,-0.01888 -0.01888,-0.03774 -0.01888,-0.0566 0,-0.07549 -0.03774,-0.13208 -0.09433,-0.188685 -0.132081,-0.415109 -0.264161,-0.849086 -0.396241,-1.264193 0,-0.09433 0,-0.188687 0,-0.264162 0.01888,-0.07547 0.05659,-0.150948 0.01888,-0.207553 0,-0.188686 0.01888,-0.377371 0.01888,-0.547188 0.07548,-0.490583 0.207554,-0.981165 0.452846,-1.434012 0.283028,-0.528319 0.717005,-0.90569 1.207587,-1.207588 0.15095,-0.01887 0.26416,-0.09433 0.377372,-0.169816 0.603794,-0.24529 1.226456,-0.26416 1.867987,-0.188686 0.830217,0.09433 1.471749,0.509451 1.924593,1.245324 0.245293,0.490584 0.339635,1.000035 0.320768,1.547223 0,0.358503 -0.01887,0.698136 0.01888,1.056641 0.132081,1.207587 0.698136,2.037806 1.886856,2.415176 0.207555,0.07547 0.415109,0.132081 0.641532,0.132081 0.03774,0 0.07548,0 0.11322,0.01888 0.0566,0.03774 0.09433,0.03774 0.15095,0.01888 0.245289,0.01888 0.490581,0.07549 0.717004,-0.03774 h 0.01889 l 0.01887,-0.01888 c 0.09433,0 0.188686,0.07547 0.301898,0.03774 0.50945,-0.132082 1.000033,-0.283028 1.377405,-0.679268 0.264158,-0.13208 0.433976,-0.339635 0.584924,-0.566059 0.509452,-0.717003 0.641532,-1.528353 0.641532,-2.377439 0.01888,-1.358536 0.01888,-2.717072 0.01888,-4.075608 0,-0.717005 0,-1.415144 -0.01888,-2.132148 0,-0.509453 0.01888,-1.000036 0.01888,-1.509485 0,-0.924561 -0.01888,-1.830251 -0.01888,-2.75481 0,-0.07549 0.01888,-0.169817 0.01888,-0.245293 0,-0.792477 -0.358503,-1.113245 -1.037771,-1.188718 -0.490586,-0.03774 -0.962298,-0.03774 -1.452882,-0.01889 -0.358503,-0.03774 -0.396238,-0.0566 -0.320765,-0.339636 0.01887,-0.566055 0.01887,-1.132111 0,-1.679302 0.01887,-0.283028 0.01887,-0.566056 0,-0.849084 0,-0.26416 0.207554,-0.113219 0.320765,-0.169816 0.6604,0.03774 1.3208,0.03774 1.981198,0 0.05661,0 0.11322,0.01887 0.169819,0.01887 2.264228,0 4.528455,0 6.792681,0 0.03774,-0.07548 0.09433,-0.07548 0.169817,-0.09433 z"
       id="path4"
       style="fill:#d9dee9;fill-opacity:1;stroke-width:0;stroke-miterlimit:10;stroke-dasharray:none" />
  </g>
</svg>
