<?xml version="1.0" encoding="UTF-8" standalone="no"?>
<svg
   xmlns:dc="http://purl.org/dc/elements/1.1/"
   xmlns:cc="http://creativecommons.org/ns#"
   xmlns:rdf="http://www.w3.org/1999/02/22-rdf-syntax-ns#"
   xmlns:svg="http://www.w3.org/2000/svg"
   xmlns="http://www.w3.org/2000/svg"
   xmlns:sodipodi="http://sodipodi.sourceforge.net/DTD/sodipodi-0.dtd"
   xmlns:inkscape="http://www.inkscape.org/namespaces/inkscape"
   width="192"
   height="192"
   viewBox="0 0 50.799999 50.799999"
   version="1.1"
   id="svg8"
   inkscape:version="1.0.2 (e86c870879, 2021-01-15)"
   sodipodi:docname="6_occupied.svg"
   inkscape:export-filename="/home/hrq/.config/awesome/themes/dark/taglist/2_empty.png"
   inkscape:export-xdpi="96"
   inkscape:export-ydpi="96">
  <defs
     id="defs2">
    <linearGradient
       id="firefox-b"
       x1="44.017941"
       x2="75.088783"
       y1="144.35971"
       y2="73.385971"
       gradientTransform="scale(0.98864724,1.0114831)"
       gradientUnits="userSpaceOnUse">
      <stop
         offset="0%"
         stop-color="#FF837D"
         id="stop10" />
      <stop
         offset="100%"
         stop-color="#F8C18C"
         id="stop12" />
    </linearGradient>
    <path
       id="firefox-a"
       d="m 180.85648,81.906566 -3.11016,2.681417 c 0,-19.143407 -27.04096,-58.671854 -31.43882,-66.93896 -1.68953,2.45768 -3.39729,5.263416 -3.48586,8.267106 C 141.00482,23.0214 124.94671,10.560517 121.85269,0 112.2272,8.4430317 103.72622,32.361926 109.744,48.763614 c 6.01777,16.401689 19.30416,25.239218 19.40566,25.476354 22.12264,51.688172 -21.61222,69.707382 -45.775121,63.385052 -10.383055,-2.71678 -14.904898,-7.76453 -20.467849,-13.47452 9.749446,2.37635 16.921639,1.6572 24.379614,-0.85365 9.179713,-3.0905 9.944685,-8.54235 17.363836,-5.61924 2.78991,-0.38596 3.00365,-3.23229 2.06993,-5.78079 -1.34996,-1.89576 -3.39177,-3.61557 -6.01294,-5.13105 -5.720442,-3.01392 -12.06164,-1.17303 -22.336173,1.22237 -9.906975,2.30971 -27.820024,-12.752195 -18.247652,-23.400157 2.261011,0.65236 4.831486,1.602507 9.657585,3.021492 1.013429,-1.755591 1.941525,-8.304432 1.013429,-10.747096 4.533608,-4.359122 17.166963,-7.939883 17.459454,-9.625637 1.226212,-1.640346 4.201234,-9.511091 2.682531,-10.464649 -3.178025,0.175955 -24.956639,0 -22.38629,-9.848499 C 69.706188,43.62761 76.333493,34.714305 81.120219,31.444964 72.656136,29.44089 64.657636,33.062795 57.474735,38.251501 53.677979,36.882773 41.916634,35.11285 38.428428,36.882773 35.280484,35.662503 29.560917,31.191814 27.907219,20.106703 25.149761,22.649818 17.48786,29.796007 15.896925,50.359514 7.7023651,59.621415 2.0046937,78.62393 2.1959377,79.305043 L 6.6985598,71.660084 C 4.7539081,78.226253 1.2377426,96.103875 0.59651267,101.58683 L 3.8476611,94.152024 c 0,0 -1.2118642,20.149156 6.9307749,37.977216 8.142638,17.82806 23.385689,31.76512 34.365346,38.15623 7.891629,4.7167 25.098219,14.20313 43.109991,14.13782 18.011777,-0.0653 43.186767,-2.25833 52.294417,-17.30253 7.669,-4.51569 14.22939,-8.21329 19.04584,-12.68801 8.72866,-8.10934 10.52212,-16.18613 10.00889,-22.30351 7.87678,-15.40328 11.25356,-33.561215 11.25356,-50.222674 z m -19.29437,-9.451851 -0.0394,0.743548 0.0281,-0.749224 0.0112,0.0057 z" />
    <linearGradient
       id="firefox-d"
       x1="39.419472"
       x2="38.300323"
       y1="192.83958"
       y2="194.13196"
       gradientTransform="scale(1.6395728,0.60991498)"
       gradientUnits="userSpaceOnUse">
      <stop
         offset="0%"
         stop-color="#FF837D"
         id="stop16" />
      <stop
         offset="100%"
         stop-color="#FF837D"
         id="stop18" />
    </linearGradient>
  </defs>
  <sodipodi:namedview
     id="base"
     pagecolor="#ffffff"
     bordercolor="#666666"
     borderopacity="1.0"
     inkscape:pageopacity="0.0"
     inkscape:pageshadow="2"
     inkscape:zoom="4.4556562"
     inkscape:cx="104.26037"
     inkscape:cy="104.83519"
     inkscape:document-units="mm"
     inkscape:current-layer="layer1"
     inkscape:document-rotation="0"
     showgrid="false"
     inkscape:window-width="1840"
     inkscape:window-height="1017"
     inkscape:window-x="66"
     inkscape:window-y="14"
     inkscape:window-maximized="0"
     units="px" />
  <metadata
     id="metadata5">
    <rdf:RDF>
      <cc:Work
         rdf:about="">
        <dc:format>image/svg+xml</dc:format>
        <dc:type
           rdf:resource="http://purl.org/dc/dcmitype/StillImage" />
        <dc:title></dc:title>
      </cc:Work>
    </rdf:RDF>
  </metadata>
  <g
     inkscape:label="Layer 1"
     inkscape:groupmode="layer"
     id="layer1">
    <g
       transform="matrix(0.18269106,0,0,0.18269106,16.448138,17.909666)"
       id="g944"
       style="fill:none;fill-rule:evenodd" />
    <g
       fill="#ffffff"
       transform="matrix(0.16310366,0,0,0.16310366,17.407921,19.691372)"
       id="g10"
       style="fill-rule:evenodd" />
    <g
       fill="#ffffff"
       transform="matrix(-0.2477709,0,0,0.2477709,37.746212,16.685684)"
       id="g16"
       style="fill:#d8dee9;fill-opacity:1;fill-rule:evenodd">
      <g
         id="g916"
         style="fill:#d8dee9;fill-opacity:1">
        <g
           id="g923"
           style="fill:#d8dee9;fill-opacity:1">
          <path
             fill="#ffffff"
             d="m 96.5,65 c 21.81525,0 39.5,14.774603 39.5,33 0,18.2254 -17.68475,33 -39.5,33 C 74.684752,131 57,116.2254 57,98 57,79.774603 74.684752,65 96.5,65 Z m -16,31 c -4.69442,0 -8.5,3.80558 -8.5,8.5 0,4.69442 3.80558,8.5 8.5,8.5 4.69442,0 8.5,-3.80558 8.5,-8.5 C 89,99.80558 85.19442,96 80.5,96 Z m 31,0 c -4.69442,0 -8.5,3.80558 -8.5,8.5 0,4.69442 3.80558,8.5 8.5,8.5 4.69442,0 8.5,-3.80558 8.5,-8.5 0,-4.69442 -3.80558,-8.5 -8.5,-8.5 z"
             id="path4-1"
             style="fill:#d8dee9;fill-opacity:1"
             transform="matrix(-1,0,0,1,146,-61)" />
          <path
             d="M 8.6042819,9.9095984 C 9.3751157,4.4366783 14.473862,0 20.001214,0 H 23 L 13,71 H 10.001214 C 4.4776962,71 0.62554479,66.558632 1.3957181,61.090402 Z"
             id="path6"
             style="fill:#d8dee9;fill-opacity:1"
             transform="matrix(-1,0,0,1,99,6.1566159e-7)" />
          <path
             d="m 15,52 c 0,0 13,18 21,19 H 11.975016 v 0 z M 43.024984,0 c -8,1 -21,19 -21,19 v 0 L 19,0 v 0 z"
             id="path8"
             style="fill:#d8dee9;fill-opacity:1"
             transform="matrix(-1,0,0,1,99,6.1566159e-7)" />
          <path
             d="M 8.6042819,9.9095984 C 9.3751157,4.4366783 14.473862,0 20.001214,0 H 23 L 13,71 H 10.001214 C 4.4776962,71 0.62554479,66.558632 1.3957181,61.090402 Z"
             id="path12"
             style="fill:#d8dee9;fill-opacity:1" />
          <path
             d="m 15,52 c 0,0 13,18 21,19 H 11.975016 v 0 z M 43.024984,0 c -8,1 -21,19 -21,19 v 0 L 19,0 v 0 z"
             id="path14"
             style="fill:#d8dee9;fill-opacity:1" />
        </g>
      </g>
    </g>
  </g>
</svg>
