<?xml version="1.0" encoding="UTF-8" standalone="no"?>
<svg
   xmlns:dc="http://purl.org/dc/elements/1.1/"
   xmlns:cc="http://creativecommons.org/ns#"
   xmlns:rdf="http://www.w3.org/1999/02/22-rdf-syntax-ns#"
   xmlns:svg="http://www.w3.org/2000/svg"
   xmlns="http://www.w3.org/2000/svg"
   xmlns:sodipodi="http://sodipodi.sourceforge.net/DTD/sodipodi-0.dtd"
   xmlns:inkscape="http://www.inkscape.org/namespaces/inkscape"
   width="192"
   height="192"
   viewBox="0 0 50.799999 50.799999"
   version="1.1"
   id="svg8"
   inkscape:version="1.0.2 (e86c870879, 2021-01-15)"
   sodipodi:docname="8_focused.svg"
   inkscape:export-filename="/home/hrq/.config/awesome/themes/dark/taglist/2_empty.png"
   inkscape:export-xdpi="96"
   inkscape:export-ydpi="96">
  <defs
     id="defs2">
    <linearGradient
       id="firefox-b"
       x1="44.017941"
       x2="75.088783"
       y1="144.35971"
       y2="73.385971"
       gradientTransform="scale(0.98864724,1.0114831)"
       gradientUnits="userSpaceOnUse">
      <stop
         offset="0%"
         stop-color="#FF837D"
         id="stop10" />
      <stop
         offset="100%"
         stop-color="#F8C18C"
         id="stop12" />
    </linearGradient>
    <path
       id="firefox-a"
       d="m 180.85648,81.906566 -3.11016,2.681417 c 0,-19.143407 -27.04096,-58.671854 -31.43882,-66.93896 -1.68953,2.45768 -3.39729,5.263416 -3.48586,8.267106 C 141.00482,23.0214 124.94671,10.560517 121.85269,0 112.2272,8.4430317 103.72622,32.361926 109.744,48.763614 c 6.01777,16.401689 19.30416,25.239218 19.40566,25.476354 22.12264,51.688172 -21.61222,69.707382 -45.775121,63.385052 -10.383055,-2.71678 -14.904898,-7.76453 -20.467849,-13.47452 9.749446,2.37635 16.921639,1.6572 24.379614,-0.85365 9.179713,-3.0905 9.944685,-8.54235 17.363836,-5.61924 2.78991,-0.38596 3.00365,-3.23229 2.06993,-5.78079 -1.34996,-1.89576 -3.39177,-3.61557 -6.01294,-5.13105 -5.720442,-3.01392 -12.06164,-1.17303 -22.336173,1.22237 -9.906975,2.30971 -27.820024,-12.752195 -18.247652,-23.400157 2.261011,0.65236 4.831486,1.602507 9.657585,3.021492 1.013429,-1.755591 1.941525,-8.304432 1.013429,-10.747096 4.533608,-4.359122 17.166963,-7.939883 17.459454,-9.625637 1.226212,-1.640346 4.201234,-9.511091 2.682531,-10.464649 -3.178025,0.175955 -24.956639,0 -22.38629,-9.848499 C 69.706188,43.62761 76.333493,34.714305 81.120219,31.444964 72.656136,29.44089 64.657636,33.062795 57.474735,38.251501 53.677979,36.882773 41.916634,35.11285 38.428428,36.882773 35.280484,35.662503 29.560917,31.191814 27.907219,20.106703 25.149761,22.649818 17.48786,29.796007 15.896925,50.359514 7.7023651,59.621415 2.0046937,78.62393 2.1959377,79.305043 L 6.6985598,71.660084 C 4.7539081,78.226253 1.2377426,96.103875 0.59651267,101.58683 L 3.8476611,94.152024 c 0,0 -1.2118642,20.149156 6.9307749,37.977216 8.142638,17.82806 23.385689,31.76512 34.365346,38.15623 7.891629,4.7167 25.098219,14.20313 43.109991,14.13782 18.011777,-0.0653 43.186767,-2.25833 52.294417,-17.30253 7.669,-4.51569 14.22939,-8.21329 19.04584,-12.68801 8.72866,-8.10934 10.52212,-16.18613 10.00889,-22.30351 7.87678,-15.40328 11.25356,-33.561215 11.25356,-50.222674 z m -19.29437,-9.451851 -0.0394,0.743548 0.0281,-0.749224 0.0112,0.0057 z" />
    <linearGradient
       id="firefox-d"
       x1="39.419472"
       x2="38.300323"
       y1="192.83958"
       y2="194.13196"
       gradientTransform="scale(1.6395728,0.60991498)"
       gradientUnits="userSpaceOnUse">
      <stop
         offset="0%"
         stop-color="#FF837D"
         id="stop16" />
      <stop
         offset="100%"
         stop-color="#FF837D"
         id="stop18" />
    </linearGradient>
  </defs>
  <sodipodi:namedview
     id="base"
     pagecolor="#ffffff"
     bordercolor="#666666"
     borderopacity="1.0"
     inkscape:pageopacity="0.0"
     inkscape:pageshadow="2"
     inkscape:zoom="4"
     inkscape:cx="106.59115"
     inkscape:cy="96.431992"
     inkscape:document-units="mm"
     inkscape:current-layer="layer1"
     inkscape:document-rotation="0"
     showgrid="false"
     inkscape:window-width="1840"
     inkscape:window-height="1017"
     inkscape:window-x="66"
     inkscape:window-y="14"
     inkscape:window-maximized="0"
     units="px" />
  <metadata
     id="metadata5">
    <rdf:RDF>
      <cc:Work
         rdf:about="">
        <dc:format>image/svg+xml</dc:format>
        <dc:type
           rdf:resource="http://purl.org/dc/dcmitype/StillImage" />
        <dc:title></dc:title>
      </cc:Work>
    </rdf:RDF>
  </metadata>
  <g
     inkscape:label="Layer 1"
     inkscape:groupmode="layer"
     id="layer1">
    <g
       transform="matrix(0.18269106,0,0,0.18269106,16.448138,17.909666)"
       id="g944"
       style="fill:none;fill-rule:evenodd" />
    <circle
       style="fill:#454e5f;fill-opacity:1;stroke-width:0.275966"
       id="path1291"
       cx="-25.4"
       cy="25.4"
       r="21.184013"
       transform="scale(-1,1)" />
    <path
       d="m 35.892114,14.339896 c -0.318304,0.01479 -0.618125,0.107339 -0.884621,0.210976 h -0.0036 c -0.270322,0.107339 -1.554689,0.647737 -3.505302,1.465736 -1.950608,0.821701 -4.482333,1.887689 -6.99555,2.946274 -5.019031,2.11347 -9.952927,4.193629 -9.952927,4.193629 l 0.05922,-0.02221 c 0,0 -0.340508,0.111039 -0.695852,0.35533 -0.181356,0.118441 -0.381241,0.281303 -0.555201,0.536695 -0.173979,0.255393 -0.314615,0.647737 -0.262794,1.051184 0.08514,0.684748 0.529294,1.095599 0.847609,1.32138 0.322029,0.229488 0.62923,0.33682 0.62923,0.33682 h 0.0075 l 4.626688,1.558265 c 0.207285,0.666243 1.410213,4.619287 1.698918,5.529818 0.170253,0.544095 0.336818,0.88462 0.544099,1.143715 0.09995,0.133259 0.218386,0.244279 0.359029,0.33313 0.05552,0.03331 0.114741,0.05923 0.173979,0.08143 0.01862,0.01113 0.037,0.01467 0.05923,0.01863 l -0.04813,-0.01113 c 0.01468,0.0036 0.02578,0.01467 0.037,0.01862 0.03703,0.01113 0.06293,0.01468 0.111054,0.02221 0.732868,0.222075 1.321383,-0.233176 1.321383,-0.233176 l 0.03331,-0.02578 2.731597,-2.487305 4.578571,3.512577 0.103637,0.04441 c 0.954958,0.418225 1.92101,0.185044 2.431797,-0.225799 0.514486,-0.414555 0.714359,-0.943846 0.714359,-0.943846 l 0.03331,-0.08512 3.538489,-18.125511 c 0.100007,-0.447844 0.125899,-0.866096 0.01474,-1.273245 -0.111054,-0.407148 -0.396046,-0.788388 -0.740271,-0.991962 -0.34792,-0.207277 -0.692153,-0.270197 -1.010467,-0.255391 z m -0.09622,1.943209 c -0.0036,0.05923 0.0075,0.05183 -0.01862,0.166562 v 0.01113 l -3.505193,17.93674 c -0.01467,0.02578 -0.04072,0.08143 -0.111053,0.136946 -0.07403,0.05923 -0.133259,0.09622 -0.440462,-0.02578 l -5.600133,-4.293579 -3.383032,3.083226 0.71066,-4.537853 c 0,0 8.772201,-8.176284 9.149734,-8.527912 0.37754,-0.351627 0.251693,-0.425655 0.251693,-0.425655 0.02578,-0.429357 -0.570006,-0.125843 -0.570006,-0.125843 l -11.537109,7.147303 -0.0036,-0.01862 -5.529818,-1.861778 v -0.0036 c -0.0036,0 -0.01113,-0.0038 -0.01467,-0.0038 0.0036,0 0.02972,-0.01113 0.02972,-0.01113 l 0.02972,-0.01479 0.02972,-0.01113 c 0,0 4.937603,-2.080158 9.956629,-4.193628 2.51317,-1.05862 5.044896,-2.124609 6.991806,-2.946309 1.946909,-0.818 3.386735,-1.417618 3.468162,-1.450929 0.07772,-0.02962 0.04072,-0.02962 0.09624,-0.02962 z"
       id="path7418"
       style="fill:#d8dee9;fill-opacity:1;stroke-width:0.94754" />
  </g>
</svg>
