<?xml version="1.0" encoding="UTF-8" standalone="no"?>
<svg
   xmlns:dc="http://purl.org/dc/elements/1.1/"
   xmlns:cc="http://creativecommons.org/ns#"
   xmlns:rdf="http://www.w3.org/1999/02/22-rdf-syntax-ns#"
   xmlns:svg="http://www.w3.org/2000/svg"
   xmlns="http://www.w3.org/2000/svg"
   xmlns:sodipodi="http://sodipodi.sourceforge.net/DTD/sodipodi-0.dtd"
   xmlns:inkscape="http://www.inkscape.org/namespaces/inkscape"
   width="192"
   height="192"
   viewBox="0 0 50.799999 50.799999"
   version="1.1"
   id="svg8"
   inkscape:version="1.0.2 (e86c870879, 2021-01-15)"
   sodipodi:docname="9_empty.svg"
   inkscape:export-filename="/home/hrq/.config/awesome/themes/dark/taglist/2_empty.png"
   inkscape:export-xdpi="96"
   inkscape:export-ydpi="96">
  <defs
     id="defs2">
    <linearGradient
       id="firefox-b"
       x1="44.017941"
       x2="75.088783"
       y1="144.35971"
       y2="73.385971"
       gradientTransform="scale(0.98864724,1.0114831)"
       gradientUnits="userSpaceOnUse">
      <stop
         offset="0%"
         stop-color="#FF837D"
         id="stop10" />
      <stop
         offset="100%"
         stop-color="#F8C18C"
         id="stop12" />
    </linearGradient>
    <path
       id="firefox-a"
       d="m 180.85648,81.906566 -3.11016,2.681417 c 0,-19.143407 -27.04096,-58.671854 -31.43882,-66.93896 -1.68953,2.45768 -3.39729,5.263416 -3.48586,8.267106 C 141.00482,23.0214 124.94671,10.560517 121.85269,0 112.2272,8.4430317 103.72622,32.361926 109.744,48.763614 c 6.01777,16.401689 19.30416,25.239218 19.40566,25.476354 22.12264,51.688172 -21.61222,69.707382 -45.775121,63.385052 -10.383055,-2.71678 -14.904898,-7.76453 -20.467849,-13.47452 9.749446,2.37635 16.921639,1.6572 24.379614,-0.85365 9.179713,-3.0905 9.944685,-8.54235 17.363836,-5.61924 2.78991,-0.38596 3.00365,-3.23229 2.06993,-5.78079 -1.34996,-1.89576 -3.39177,-3.61557 -6.01294,-5.13105 -5.720442,-3.01392 -12.06164,-1.17303 -22.336173,1.22237 -9.906975,2.30971 -27.820024,-12.752195 -18.247652,-23.400157 2.261011,0.65236 4.831486,1.602507 9.657585,3.021492 1.013429,-1.755591 1.941525,-8.304432 1.013429,-10.747096 4.533608,-4.359122 17.166963,-7.939883 17.459454,-9.625637 1.226212,-1.640346 4.201234,-9.511091 2.682531,-10.464649 -3.178025,0.175955 -24.956639,0 -22.38629,-9.848499 C 69.706188,43.62761 76.333493,34.714305 81.120219,31.444964 72.656136,29.44089 64.657636,33.062795 57.474735,38.251501 53.677979,36.882773 41.916634,35.11285 38.428428,36.882773 35.280484,35.662503 29.560917,31.191814 27.907219,20.106703 25.149761,22.649818 17.48786,29.796007 15.896925,50.359514 7.7023651,59.621415 2.0046937,78.62393 2.1959377,79.305043 L 6.6985598,71.660084 C 4.7539081,78.226253 1.2377426,96.103875 0.59651267,101.58683 L 3.8476611,94.152024 c 0,0 -1.2118642,20.149156 6.9307749,37.977216 8.142638,17.82806 23.385689,31.76512 34.365346,38.15623 7.891629,4.7167 25.098219,14.20313 43.109991,14.13782 18.011777,-0.0653 43.186767,-2.25833 52.294417,-17.30253 7.669,-4.51569 14.22939,-8.21329 19.04584,-12.68801 8.72866,-8.10934 10.52212,-16.18613 10.00889,-22.30351 7.87678,-15.40328 11.25356,-33.561215 11.25356,-50.222674 z m -19.29437,-9.451851 -0.0394,0.743548 0.0281,-0.749224 0.0112,0.0057 z" />
    <linearGradient
       id="firefox-d"
       x1="39.419472"
       x2="38.300323"
       y1="192.83958"
       y2="194.13196"
       gradientTransform="scale(1.6395728,0.60991498)"
       gradientUnits="userSpaceOnUse">
      <stop
         offset="0%"
         stop-color="#FF837D"
         id="stop16" />
      <stop
         offset="100%"
         stop-color="#FF837D"
         id="stop18" />
    </linearGradient>
  </defs>
  <sodipodi:namedview
     id="base"
     pagecolor="#ffffff"
     bordercolor="#666666"
     borderopacity="1.0"
     inkscape:pageopacity="0.0"
     inkscape:pageshadow="2"
     inkscape:zoom="2.8284271"
     inkscape:cx="174.9505"
     inkscape:cy="106.95195"
     inkscape:document-units="mm"
     inkscape:current-layer="layer1"
     inkscape:document-rotation="0"
     showgrid="false"
     inkscape:window-width="1840"
     inkscape:window-height="1017"
     inkscape:window-x="66"
     inkscape:window-y="14"
     inkscape:window-maximized="0"
     units="px" />
  <metadata
     id="metadata5">
    <rdf:RDF>
      <cc:Work
         rdf:about="">
        <dc:format>image/svg+xml</dc:format>
        <dc:type
           rdf:resource="http://purl.org/dc/dcmitype/StillImage" />
        <dc:title></dc:title>
      </cc:Work>
    </rdf:RDF>
  </metadata>
  <g
     inkscape:label="Layer 1"
     inkscape:groupmode="layer"
     id="layer1">
    <g
       transform="matrix(0.18269106,0,0,0.18269106,16.448138,17.909666)"
       id="g944"
       style="fill:none;fill-rule:evenodd" />
    <path
       d="m 25.4,11.68025 c -7.57891,0 -13.719748,6.140839 -13.719748,13.71975 0,7.57891 6.140838,13.719749 13.719748,13.719749 7.57891,0 13.719748,-6.140839 13.719748,-13.719749 0,-7.578911 -6.140838,-13.71975 -13.719748,-13.71975 z m 0,2.286626 c 6.350744,0 11.433126,5.082382 11.433126,11.433124 0,6.350743 -5.082382,11.433123 -11.433126,11.433123 -6.35074,0 -11.433122,-5.08238 -11.433122,-11.433123 0,-6.350742 5.082382,-11.433124 11.433122,-11.433124 z m -1.822155,5.430733 c -2.2241,0 -4.162369,0.205442 -6.002388,0.786028 -0.486802,0.09825 -0.893214,0.46447 -0.893214,1.143313 0,0.678842 0.500198,1.277295 1.179042,1.17904 0.290297,0 0.4868,-0.107181 0.678841,-0.107181 1.549727,-0.388548 3.295955,-0.571655 5.037719,-0.571655 3.385277,0 6.859874,0.754764 9.182227,2.107981 0.290298,0.09825 0.388561,0.21437 0.678846,0.21437 0.678839,0 1.152241,-0.500199 1.250497,-1.179042 0,-0.580587 -0.290297,-0.951271 -0.678845,-1.143312 -2.902939,-1.643508 -6.757151,-2.429536 -10.432725,-2.429536 z m -0.32154,4.251694 c -2.032057,0 -3.47906,0.290293 -4.930531,0.678842 -0.482336,0.192041 -0.750299,0.491266 -0.750299,1.071855 0,0.482335 0.384066,0.964669 0.964668,0.964669 0.196484,0 0.281353,-0.0089 0.571657,-0.107181 1.062925,-0.290292 2.523324,-0.46447 4.073051,-0.46447 3.193235,0 5.971128,0.777096 8.003185,2.036525 0.192033,0.09825 0.38856,0.178643 0.678844,0.178643 0.580589,0 0.964669,-0.491268 0.964669,-1.071857 0,-0.388547 -0.183088,-0.772629 -0.571657,-0.964669 -2.514414,-1.549723 -5.712113,-2.322352 -9.003604,-2.322352 z m 0.32154,4.180236 c -1.643509,0 -3.202164,0.183109 -4.75189,0.571655 -0.388561,0.09825 -0.678841,0.375148 -0.678841,0.857485 0,0.388548 0.303693,0.786028 0.786028,0.786028 0.09826,0 0.379616,-0.107181 0.571652,-0.107181 1.259435,-0.290293 2.612651,-0.464471 3.965867,-0.464471 2.416141,0 4.62684,0.580588 6.46686,1.643511 0.196483,0.09825 0.415351,0.178643 0.607385,0.178643 0.388561,0 0.759232,-0.290293 0.857486,-0.678843 0,-0.486801 -0.209922,-0.665443 -0.500202,-0.857483 -2.130312,-1.259428 -4.617908,-1.929339 -7.324345,-1.929339 z"
       id="path10538"
       style="stroke-width:1.14331;fill:#717883;fill-opacity:1" />
  </g>
</svg>
